HIERARCHY
ROOT Hips
{
	OFFSET 0.000000 0.000000 0.000000
	CHANNELS 6 Xposition Yposition Zposition Zrotation Yrotation Xrotation 
	JOINT LeftUpLeg_virtual
	{
		OFFSET 0.000000 0.000000 0.000000
		CHANNELS 3 Zrotation Yrotation Xrotation
		JOINT LeftUpLeg
		{
			OFFSET 8.479694 -4.795517 -0.379053
			CHANNELS 3 Zrotation Yrotation Xrotation
			JOINT LeftLeg
			{
				OFFSET 0.485052 -32.551468 0.112863
				CHANNELS 3 Zrotation Yrotation Xrotation
				JOINT LeftFoot
				{
					OFFSET 0.438033 -32.635670 -3.012641
					CHANNELS 3 Zrotation Yrotation Xrotation
					JOINT LeftToeBase
					{
						OFFSET 0.970169 -13.225353 11.864223
						CHANNELS 3 Zrotation Yrotation Xrotation
						End Site
						{
							OFFSET 0.000000 0.000000 0.000000
						}
					}
				}
			}
		}
	}
	JOINT RightUpLeg_virtual
	{
		OFFSET 0.000000 0.000000 0.000000
		CHANNELS 3 Zrotation Yrotation Xrotation
		JOINT RightUpLeg
		{
			OFFSET -8.479694 -4.795517 -0.379053
			CHANNELS 3 Zrotation Yrotation Xrotation
			JOINT RightLeg
			{
				OFFSET -0.484100 -32.551483 0.112903
				CHANNELS 3 Zrotation Yrotation Xrotation
				JOINT RightFoot
				{
					OFFSET -0.438985 -32.635651 -3.012681
					CHANNELS 3 Zrotation Yrotation Xrotation
					JOINT RightToeBase
					{
						OFFSET -0.970169 -13.225354 11.864223
						CHANNELS 3 Zrotation Yrotation Xrotation
						End Site
						{
							OFFSET 0.000000 0.000000 0.000000
						}
					}
				}
			}
		}
	}
	JOINT Spine_virtual
	{
		OFFSET 0.000000 0.000000 0.000000
		CHANNELS 3 Zrotation Yrotation Xrotation
		JOINT Spine
		{
			OFFSET 0.000000 7.722015 1.166203
			CHANNELS 3 Zrotation Yrotation Xrotation
			JOINT Spine1
			{
				OFFSET 0.000000 12.024086 0.248766
				CHANNELS 3 Zrotation Yrotation Xrotation
				JOINT Spine2
				{
					OFFSET -0.000000 11.503036 -0.491240
					CHANNELS 3 Zrotation Yrotation Xrotation
					JOINT Neck_virtual
					{
						OFFSET 0.000000 0.000000 0.000000
						CHANNELS 3 Zrotation Yrotation Xrotation
						JOINT Neck
						{
							OFFSET 0.000000 18.430687 -3.123054
							CHANNELS 3 Zrotation Yrotation Xrotation
							JOINT Head
							{
								OFFSET -0.000000 9.051071 1.034021
								CHANNELS 3 Zrotation Yrotation Xrotation
								End Site
								{
									OFFSET 0.000000 0.000000 0.000000
								}
							}
						}
					}
					JOINT LeftShoulder_virtual
					{
						OFFSET 0.000000 0.000000 0.000000
						CHANNELS 3 Zrotation Yrotation Xrotation
						JOINT LeftShoulder
						{
							OFFSET 6.197824 13.665230 -4.064723
							CHANNELS 3 Zrotation Yrotation Xrotation
							JOINT LeftArm
							{
								OFFSET 7.778132 -0.187073 -1.709282
								CHANNELS 3 Zrotation Yrotation Xrotation
								JOINT LeftForeArm
								{
									OFFSET 21.954697 0.000000 -2.041093
									CHANNELS 3 Zrotation Yrotation Xrotation
									JOINT LeftHand
									{
										OFFSET 22.992908 0.000000 -0.870901
										CHANNELS 3 Zrotation Yrotation Xrotation
										End Site
										{
											OFFSET 0.000000 0.000000 0.000000
										}
									}
								}
							}
						}
					}
					JOINT RightShoulder_virtual
					{
						OFFSET 0.000000 0.000000 0.000000
						CHANNELS 3 Zrotation Yrotation Xrotation
						JOINT RightShoulder
						{
							OFFSET -6.197824 13.665230 -4.064723
							CHANNELS 3 Zrotation Yrotation Xrotation
							JOINT RightArm
							{
								OFFSET -7.778132 -0.187073 -1.709282
								CHANNELS 3 Zrotation Yrotation Xrotation
								JOINT RightForeArm
								{
									OFFSET -21.954697 0.000000 -2.041093
									CHANNELS 3 Zrotation Yrotation Xrotation
									JOINT RightHand
									{
										OFFSET -22.992908 0.000000 -0.870901
										CHANNELS 3 Zrotation Yrotation Xrotation
										End Site
										{
											OFFSET 0.000000 0.000000 0.000000
										}
									}
								}
							}
						}
					}
				}
			}
		}
	}
}
MOTION
Frames: 9
Frame Time: 0.033333
-10.396461 32.691746 -5.452665 179.033110 11.365664 179.708848 3.876624 -6.149599 -19.256620 -24.181863 4.766022 -94.543909 18.422173 -4.606858 103.413108 0.348850 -15.165219 -9.831226 0.000000 0.000000 0.000000 1.196278 4.398980 -14.895968 2.025817 -6.441757 -71.389158 1.896101 1.144927 33.342531 10.692349 13.194265 5.204977 0.000000 0.000000 0.000000 -4.039039 7.198214 -6.122002 0.347777 -1.885260 15.050605 -0.940550 -2.028980 14.213822 0.156722 -0.180185 -0.046618 -0.502826 -2.545443 17.081164 -10.095705 9.329641 -17.505527 0.000000 0.000000 0.000000 3.035764 -2.017136 11.338888 2.628358 -5.708495 8.567369 22.801379 -59.841944 -17.856635 -60.045812 -72.803369 71.146515 0.000000 0.000000 0.000000 -2.847778 0.135924 11.318973 44.407882 23.658163 10.891708 7.949166 33.265989 -21.733988 8.883805 55.910173 4.217805 0.000000 0.000000 0.000000 
-10.335529 32.663212 -5.610233 178.843176 11.200052 179.602543 3.922651 -6.268621 -19.288816 -24.215059 4.684204 -94.519067 18.609400 -4.722772 103.774295 0.004489 -15.261882 -10.124488 0.000000 0.000000 0.000000 1.232842 4.337523 -14.978176 1.506316 -6.316659 -71.629765 1.897026 0.846731 34.143320 10.449577 13.078020 4.472630 0.000000 0.000000 0.000000 -4.245303 7.201259 -6.245260 0.270658 -1.778762 15.123745 -0.956317 -2.163767 14.277174 0.197809 -0.316680 -0.043454 -0.459966 -2.548210 17.201142 -10.011727 9.336734 -17.378178 0.000000 0.000000 0.000000 3.102749 -2.045523 11.405367 2.568118 -5.764116 8.673911 22.882220 -59.764763 -17.990189 -60.686415 -72.725341 71.844226 0.000000 0.000000 0.000000 -2.816289 0.094556 11.311964 44.685338 23.544374 11.171632 7.703744 33.441190 -21.778224 8.895520 55.807533 4.303970 0.000000 0.000000 0.000000 
-10.277129 32.673988 -5.697140 179.185846 11.891257 179.760470 4.267231 -5.894132 -19.375910 -24.454603 5.024805 -94.573941 18.492995 -5.025572 103.837023 0.417752 -15.310639 -10.597190 0.000000 0.000000 0.000000 0.991844 3.416399 -14.931820 1.381859 -7.592695 -71.692165 0.536047 -0.386692 35.812936 5.553708 8.311417 5.804960 0.000000 0.000000 0.000000 -4.252164 6.957263 -6.441272 0.299116 -1.801472 15.085800 -0.888302 -1.777411 14.288915 0.074665 -0.004725 0.028094 -0.484010 -2.540937 17.194151 -10.087986 9.363745 -17.423215 0.000000 0.000000 0.000000 3.092734 -1.904602 11.338851 2.332629 -5.689478 8.931408 23.097091 -59.622996 -18.221852 -61.365035 -72.687351 72.619213 0.000000 0.000000 0.000000 -2.766694 0.282685 11.291900 44.656559 23.623434 11.245136 7.617777 33.552864 -21.791041 9.114254 55.736273 4.570871 0.000000 0.000000 0.000000 
-10.206761 32.725327 -5.671049 179.621790 11.837392 179.781275 4.461771 -5.844006 -19.489345 -24.358026 4.973979 -94.337924 18.464961 -5.240061 103.836695 0.350787 -15.408987 -10.568709 0.000000 0.000000 0.000000 1.247253 3.223372 -15.040425 1.684073 -7.924818 -71.793020 -0.382612 -1.065377 36.648852 3.570573 6.401162 6.254682 0.000000 0.000000 0.000000 -3.977899 7.018559 -6.375464 0.405027 -1.866066 15.178562 -0.796769 -1.782755 14.216146 0.056586 -0.019748 0.019877 -0.566545 -2.544372 17.179736 -10.204048 9.465743 -17.603194 0.000000 0.000000 0.000000 3.064539 -1.882077 11.363237 2.183062 -5.663802 8.825531 23.004999 -59.680875 -18.316196 -61.502117 -72.509425 72.768583 0.000000 0.000000 0.000000 -2.748871 0.327222 11.384612 44.671476 23.651779 11.392051 7.439682 33.694744 -22.088352 9.088865 55.533891 4.545107 0.000000 0.000000 0.000000 
-10.151432 32.793076 -5.532692 179.518873 11.718670 179.916636 4.508490 -5.857697 -19.718990 -24.336169 4.919834 -94.260019 18.498251 -5.288329 103.572285 0.342933 -15.592270 -10.158410 0.000000 0.000000 0.000000 0.974199 3.442182 -15.142611 1.259803 -7.325834 -71.729738 0.878012 0.067036 36.067763 7.180422 9.999405 4.359876 0.000000 0.000000 0.000000 -3.995061 7.190413 -6.390611 0.302842 -1.831899 15.193109 -0.762272 -1.805089 14.242380 0.064333 -0.085460 -0.028378 -0.473575 -2.570551 17.157838 -10.266593 9.467413 -17.706220 0.000000 0.000000 0.000000 3.128367 -1.897205 11.362767 2.123721 -5.654440 8.945860 23.739986 -59.671811 -19.205175 -60.896546 -72.421507 72.160341 0.000000 0.000000 0.000000 -2.681078 0.380416 11.369383 44.546999 23.669090 11.436249 7.352147 33.747429 -22.422464 8.895302 55.266083 4.326046 0.000000 0.000000 0.000000 
-10.155726 32.850056 -5.355889 179.320825 11.540000 179.897921 4.436160 -5.972480 -19.840277 -24.449371 4.954293 -94.186608 18.496554 -5.254043 103.258930 0.249115 -15.662032 -9.640343 0.000000 0.000000 0.000000 1.100612 3.554810 -15.342031 1.613205 -6.950026 -71.571763 1.223654 0.268802 35.437665 8.599105 11.492184 3.632689 0.000000 0.000000 0.000000 -4.017461 7.117536 -6.337324 0.130116 -1.863429 15.370936 -0.738081 -1.784054 14.206431 0.105685 -0.036343 -0.043492 -0.503935 -2.530882 17.053654 -10.491858 9.482863 -17.856112 0.000000 0.000000 0.000000 3.147591 -1.982223 11.269307 2.051417 -5.792062 8.955914 24.254210 -59.754156 -19.917723 -60.282054 -72.474891 71.449072 0.000000 0.000000 0.000000 -2.621125 0.285374 11.347432 44.322365 23.774685 11.442547 7.248441 33.789335 -22.684342 8.759881 54.940273 4.114225 0.000000 0.000000 0.000000 
-10.199104 32.863216 -5.226554 179.452593 11.581473 179.921130 4.608309 -6.107524 -19.982543 -24.331804 4.867715 -94.135853 18.478273 -5.359295 103.042850 0.301067 -15.715277 -9.243651 0.000000 0.000000 0.000000 1.097628 3.397821 -15.513361 2.006404 -6.812096 -71.339509 1.137978 0.273816 35.117749 8.559152 11.454739 4.253736 0.000000 0.000000 0.000000 -3.837298 6.958872 -6.355742 0.082734 -1.871670 15.569638 -0.706772 -1.779062 14.184125 0.100178 -0.026920 -0.024787 -0.513361 -2.532257 16.984872 -10.578445 9.519732 -17.975000 0.000000 0.000000 0.000000 3.149419 -1.949730 11.241420 2.090687 -5.791128 8.966917 24.571392 -59.842115 -20.311027 -59.478025 -72.415305 70.538328 0.000000 0.000000 0.000000 -2.623100 0.301569 11.301141 44.133991 23.878729 11.440259 7.217061 33.833530 -22.700929 8.624886 54.707438 3.897044 0.000000 0.000000 0.000000 
-10.278918 32.833424 -5.168897 179.510608 11.697794 179.924299 4.676203 -6.180712 -20.004869 -24.307839 4.854484 -94.156200 18.514170 -5.426841 102.908213 0.428236 -15.706951 -9.127680 0.000000 0.000000 0.000000 0.955832 3.214324 -15.749004 2.287170 -6.662493 -71.000759 1.019287 0.335637 34.829880 8.491424 11.462523 4.588853 0.000000 0.000000 0.000000 -3.787657 6.864916 -6.377488 -0.000341 -1.895834 15.748514 -0.687114 -1.805926 14.148604 0.067177 -0.043105 -0.015934 -0.420374 -2.533903 16.919926 -10.621139 9.533485 -18.036515 0.000000 0.000000 0.000000 3.204978 -1.907513 11.236542 2.248258 -5.744351 8.994760 24.620638 -59.943113 -20.258654 -59.129262 -72.419485 70.042347 0.000000 0.000000 0.000000 -2.562913 0.297818 11.231655 43.982009 23.990479 11.375524 7.283127 33.874900 -22.422799 8.616209 54.578874 3.693826 0.000000 0.000000 0.000000 
-10.315858 32.784977 -5.163272 179.697510 11.802849 179.957098 4.696799 -6.088061 -20.010019 -24.272559 4.846266 -94.233443 18.534796 -5.480146 102.921682 0.531123 -15.728006 -9.090140 0.000000 0.000000 0.000000 0.726713 3.217106 -15.753188 2.481022 -6.465293 -70.858527 0.881436 0.335419 34.586637 8.354237 11.442176 4.547696 0.000000 0.000000 0.000000 -3.711772 6.877071 -6.354755 -0.013231 -1.895638 15.825847 -0.668721 -1.767686 14.088063 0.031987 -0.003181 -0.031308 -0.381209 -2.388810 16.891533 -10.665211 9.688710 -17.990758 0.000000 0.000000 0.000000 3.244490 -1.892613 11.178066 2.387726 -5.725549 9.029151 24.255680 -59.969416 -19.676144 -58.701596 -72.606878 69.700148 0.000000 0.000000 0.000000 -2.568192 0.301143 11.173052 43.856935 24.025600 11.269979 7.363121 33.862835 -22.075901 8.441797 54.519594 3.545450 0.000000 0.000000 0.000000 
